<svg xmlns="http://www.w3.org/2000/svg" width="375" viewBox="0 0 375 375" height="375" version="1.0"><defs><clipPath id="a"><path d="M 97.019531 96.367188 L 142.769531 96.367188 L 142.769531 322.117188 L 97.019531 322.117188 Z M 97.019531 96.367188"/></clipPath></defs><g clip-path="url(#a)"><path fill="#6D341E" d="M 99.996094 99.746094 L 99.996094 110.195312 L 116.589844 110.195312 C 118.464844 110.195312 120.878906 109.84375 120.878906 111.558594 C 120.878906 113.269531 118.574219 112.921875 116.703125 112.921875 L 99.996094 112.921875 C 99.996094 116.859375 99.996094 120.796875 99.996094 124.730469 C 102.640625 124.992188 109.367188 123.367188 109.25 126.207031 C 109.140625 128.886719 102.648438 127.007812 99.996094 127.570312 C 99.992188 131.167969 99.992188 134.761719 99.992188 138.359375 L 116.589844 138.359375 C 118.464844 138.359375 120.878906 138.007812 120.878906 139.722656 C 120.878906 141.4375 118.574219 141.085938 116.703125 141.085938 L 99.992188 141.085938 C 99.992188 144.683594 99.992188 148.28125 99.992188 151.875 C 102.640625 152.136719 109.367188 150.511719 109.25 153.351562 C 109.140625 156.03125 102.648438 154.152344 99.992188 154.714844 C 99.992188 158.3125 99.992188 161.90625 99.992188 165.503906 L 116.589844 165.503906 C 118.464844 165.503906 120.878906 165.152344 120.878906 166.871094 C 120.878906 168.578125 118.574219 168.230469 116.703125 168.230469 L 99.992188 168.230469 C 99.992188 172.167969 99.992188 176.101562 99.992188 180.039062 C 102.640625 180.300781 109.367188 178.679688 109.25 181.515625 C 109.140625 184.199219 102.648438 182.316406 99.992188 182.882812 C 99.992188 186.480469 99.992188 190.074219 99.992188 193.671875 L 116.585938 193.671875 C 118.464844 193.671875 120.878906 193.320312 120.878906 195.03125 C 120.878906 196.746094 118.574219 196.398438 116.699219 196.398438 L 99.992188 196.398438 C 99.992188 200.445312 99.992188 204.5 99.992188 208.546875 C 102.636719 208.808594 109.363281 207.1875 109.25 210.023438 C 109.140625 212.707031 102.644531 210.824219 99.992188 211.386719 C 99.992188 214.980469 99.992188 218.578125 99.992188 222.179688 L 116.585938 222.179688 C 118.472656 222.179688 120.878906 221.8125 120.878906 223.539062 C 120.878906 225.253906 118.574219 224.902344 116.699219 224.902344 L 99.992188 224.902344 C 99.992188 228.835938 99.992188 232.78125 99.992188 236.714844 C 102.636719 236.976562 109.363281 235.347656 109.25 238.191406 C 109.140625 240.867188 102.644531 238.992188 99.992188 239.554688 C 99.992188 243.148438 99.992188 246.746094 99.992188 250.34375 L 116.585938 250.34375 C 118.46875 250.34375 120.875 249.980469 120.875 251.707031 C 120.875 253.414062 118.574219 253.070312 116.699219 253.070312 L 99.992188 253.070312 C 99.992188 256.664062 99.992188 260.261719 99.992188 263.855469 C 102.636719 264.117188 109.363281 262.492188 109.246094 265.335938 C 109.140625 268.003906 102.644531 266.140625 99.992188 266.695312 C 99.992188 270.292969 99.992188 273.886719 99.992188 277.484375 L 116.585938 277.484375 C 118.46875 277.484375 120.875 277.125 120.875 278.851562 C 120.875 280.5625 118.570312 280.210938 116.699219 280.210938 L 99.992188 280.210938 C 99.992188 284.144531 99.992188 288.089844 99.992188 292.027344 C 102.636719 292.285156 109.363281 290.660156 109.246094 293.503906 C 109.136719 296.164062 102.640625 294.308594 99.992188 294.863281 C 99.988281 298.460938 99.988281 302.054688 99.988281 305.652344 L 116.585938 305.652344 C 118.46875 305.652344 120.875 305.292969 120.875 307.011719 C 120.875 308.730469 118.570312 308.378906 116.699219 308.378906 L 99.988281 308.378906 C 99.988281 311.972656 99.988281 315.570312 99.988281 319.167969 L 139.84375 319.167969 C 139.839844 245.914062 139.839844 172.65625 139.839844 99.40625 C 126.59375 99.40625 113.347656 99.40625 100.101562 99.40625 C 99.96875 99.425781 99.980469 99.585938 99.988281 99.746094 Z M 100.445312 96.566406 C 109.898438 96.113281 121.601562 96.566406 131.945312 96.566406 L 137.25 96.566406 C 138.957031 96.566406 141.921875 96.304688 142.445312 97.019531 C 142.992188 97.773438 142.667969 101.742188 142.667969 103.835938 C 142.667969 139.273438 142.667969 174.164062 142.667969 209.460938 C 142.667969 243.113281 142.667969 280.351562 142.667969 315.085938 C 142.667969 317.59375 142.941406 321.054688 142.332031 321.667969 C 141.59375 322.414062 138.433594 322.007812 136.910156 322.007812 L 102.816406 322.007812 C 101.183594 322.007812 98.117188 322.277344 97.511719 321.667969 C 96.910156 321.066406 97.171875 317.097656 97.171875 314.964844 C 97.175781 260.859375 97.167969 206.777344 97.171875 153.019531 C 97.171875 136.71875 97.171875 120.640625 97.171875 103.726562 C 97.171875 101.460938 96.71875 97.953125 97.398438 97.023438 C 97.902344 96.332031 99.445312 96.617188 100.445312 96.570312" fill-rule="evenodd"/></g><path fill="#FFE000" d="M 100.109375 99.40625 L 139.847656 99.40625 L 139.847656 319.167969 L 99.996094 319.167969 C 99.996094 315.570312 99.996094 311.976562 99.996094 308.378906 L 116.703125 308.378906 C 118.578125 308.378906 120.878906 308.730469 120.878906 307.011719 C 120.878906 305.292969 118.472656 305.652344 116.589844 305.652344 L 99.996094 305.652344 C 99.996094 302.054688 99.996094 298.460938 99.996094 294.863281 C 102.648438 294.308594 109.140625 296.164062 109.25 293.503906 C 109.367188 290.660156 102.640625 292.289062 99.996094 292.027344 C 99.996094 288.089844 99.996094 284.148438 99.996094 280.210938 L 116.703125 280.210938 C 118.574219 280.210938 120.878906 280.5625 120.878906 278.851562 C 120.878906 277.125 118.472656 277.484375 116.589844 277.484375 L 99.996094 277.484375 C 99.992188 273.886719 99.992188 270.292969 99.992188 266.695312 C 102.644531 266.140625 109.140625 268.003906 109.25 265.335938 C 109.367188 262.492188 102.636719 264.121094 99.992188 263.859375 C 99.992188 260.261719 99.992188 256.664062 99.992188 253.070312 L 116.703125 253.070312 C 118.574219 253.070312 120.878906 253.414062 120.878906 251.707031 C 120.878906 249.984375 118.472656 250.34375 116.589844 250.34375 L 99.992188 250.34375 C 99.992188 246.746094 99.992188 243.148438 99.992188 239.554688 C 102.648438 238.992188 109.140625 240.867188 109.25 238.195312 C 109.367188 235.347656 102.640625 236.976562 99.992188 236.714844 C 99.992188 232.78125 99.992188 228.835938 99.992188 224.902344 L 116.699219 224.902344 C 118.574219 224.902344 120.878906 225.253906 120.878906 223.539062 C 120.878906 221.816406 118.472656 222.179688 116.589844 222.179688 L 99.992188 222.179688 C 99.992188 218.578125 99.992188 214.980469 99.992188 211.386719 C 102.648438 210.824219 109.140625 212.707031 109.25 210.027344 C 109.363281 207.1875 102.636719 208.808594 99.992188 208.546875 C 99.992188 204.5 99.992188 200.445312 99.992188 196.398438 L 116.699219 196.398438 C 118.574219 196.398438 120.878906 196.746094 120.878906 195.03125 C 120.878906 193.320312 118.464844 193.671875 116.585938 193.671875 L 99.992188 193.671875 C 99.992188 190.078125 99.992188 186.480469 99.992188 182.882812 C 102.644531 182.316406 109.140625 184.199219 109.25 181.515625 C 109.363281 178.679688 102.636719 180.300781 99.992188 180.039062 C 99.992188 176.101562 99.992188 172.167969 99.992188 168.230469 L 116.699219 168.230469 C 118.574219 168.230469 120.878906 168.578125 120.878906 166.871094 C 120.878906 165.152344 118.460938 165.503906 116.585938 165.503906 L 99.992188 165.503906 C 99.992188 161.910156 99.992188 158.3125 99.992188 154.714844 C 102.644531 154.152344 109.140625 156.03125 109.25 153.351562 C 109.363281 150.511719 102.636719 152.136719 99.992188 151.875 C 99.992188 148.28125 99.992188 144.683594 99.992188 141.089844 L 116.699219 141.089844 C 118.570312 141.089844 120.875 141.4375 120.875 139.722656 C 120.875 138.011719 118.460938 138.359375 116.585938 138.359375 L 99.992188 138.359375 C 99.992188 134.765625 99.992188 131.167969 99.992188 127.574219 C 102.644531 127.007812 109.136719 128.886719 109.246094 126.207031 C 109.363281 123.371094 102.636719 124.992188 99.992188 124.734375 C 99.992188 120.796875 99.992188 116.859375 99.992188 112.921875 L 116.699219 112.921875 C 118.570312 112.921875 120.875 113.273438 120.875 111.558594 C 120.875 109.84375 118.460938 110.195312 116.585938 110.195312 L 99.992188 110.195312 C 99.988281 106.714844 99.988281 103.230469 99.988281 99.746094 C 99.980469 99.585938 99.96875 99.425781 100.101562 99.40625" fill-rule="evenodd"/><g fill="#5CE1E6"><g><g><path d="M 119.121094 -86.007812 C 121.054688 -87.941406 134.816406 -98.691406 134.816406 -126.429688 C 134.816406 -137.394531 131.160156 -148.792969 124.28125 -156.746094 C 116.753906 -165.5625 106.863281 -171.367188 92.886719 -171.367188 L 22.363281 -171.367188 C 16.125 -171.367188 12.472656 -168.144531 9.675781 -164.488281 C 6.878906 -160.617188 7.09375 -156.53125 7.09375 -156.53125 L 7.09375 -15.265625 C 7.09375 -14.40625 7.09375 -10.105469 10.535156 -6.234375 C 12.039062 -4.300781 15.695312 -0.644531 22.363281 -0.644531 L 49.667969 -0.644531 L 93.53125 -0.429688 C 105.574219 -0.429688 116.109375 -6.234375 123.636719 -14.835938 C 130.515625 -22.792969 135.03125 -35.90625 135.03125 -45.367188 C 135.675781 -69.449219 122.773438 -82.996094 119.121094 -86.007812 Z M 83.640625 -127.074219 L 83.640625 -124.28125 C 83.640625 -119.550781 79.988281 -115.894531 75.042969 -115.894531 L 62.140625 -115.894531 C 60.636719 -115.894531 59.773438 -116.753906 59.773438 -118.042969 L 59.773438 -133.097656 C 59.773438 -134.386719 60.636719 -135.460938 62.140625 -135.460938 L 75.042969 -135.460938 C 79.988281 -135.460938 83.640625 -131.589844 83.640625 -127.074219 Z M 83.640625 -55.042969 L 83.640625 -48.808594 C 83.640625 -44.078125 79.988281 -40.207031 75.042969 -40.207031 L 62.140625 -40.207031 C 60.636719 -40.207031 59.773438 -41.5 59.773438 -42.574219 L 59.773438 -61.496094 C 59.773438 -62.785156 60.636719 -63.644531 62.140625 -63.644531 L 75.042969 -63.644531 C 79.988281 -63.644531 83.640625 -59.988281 83.640625 -55.042969 Z M 83.640625 -55.042969" transform="translate(123.936 326.8)"/></g></g></g><path transform="matrix(1.12199 0 0 1.12199 82.295 149.764)" fill="none" d="M 149.861512 76.361841 C 151.595322 74.631513 163.853844 65.039855 163.853844 40.338291 C 163.853844 30.55863 160.622969 20.406443 154.446708 13.293646 C 147.758659 5.432316 138.960794 0.241332 126.469009 0.241332 L 63.634077 0.241332 C 58.067086 0.241332 54.839693 3.14146 52.312091 6.417594 C 49.833231 9.83299 50.017753 13.481649 50.017753 13.481649 L 50.017753 139.384776 C 50.017753 140.18205 50.017753 143.969972 53.105884 147.430628 C 54.418426 149.164437 57.691079 152.43709 63.634077 152.43709 L 87.963117 152.43709 L 127.078279 152.625094 C 137.790995 152.625094 147.194649 147.430628 153.886179 139.760783 C 160.01718 132.693246 164.038365 120.998735 164.038365 112.576877 C 164.647636 91.099223 153.137647 79.028705 149.861512 76.361841 Z M 118.235154 39.72902 L 118.235154 42.256622 C 118.235154 46.465811 115.007761 49.693203 110.607088 49.693203 L 99.10058 49.693203 C 97.742778 49.693203 96.994245 48.944671 96.994245 47.774872 L 96.994245 34.395293 C 96.994245 33.225493 97.742778 32.288958 99.10058 32.288958 L 110.607088 32.288958 C 115.007761 32.288958 118.235154 35.704354 118.235154 39.72902 Z M 118.235154 103.921755 L 118.235154 109.488746 C 118.235154 113.697934 115.007761 117.162072 110.607088 117.162072 L 99.10058 117.162072 C 97.742778 117.162072 96.994245 115.992273 96.994245 115.055737 L 96.994245 98.21202 C 96.994245 97.042221 97.742778 96.293689 99.10058 96.293689 L 110.607088 96.293689 C 115.007761 96.293689 118.235154 99.521081 118.235154 103.921755 Z M 118.235154 103.921755" stroke="#B2EDEF" stroke-width="3.114"/><path fill="#FBCD93" d="M 212.890625 292.109375 L 207.582031 295.335938 L 201.371094 318.191406 C 200.671875 320.769531 202.207031 322.304688 204.785156 321.605469 L 227.640625 315.398438 L 230.867188 310.085938 L 212.890625 292.109375"/><path fill="#FABF74" d="M 230.867188 310.085938 L 226.234375 305.449219 C 226.160156 305.898438 226.101562 306.324219 226.039062 306.679688 C 225.808594 307.949219 225.652344 309.382812 225.035156 310.539062 C 223.410156 313.570312 220.0625 315.605469 216.753906 316.289062 C 211.777344 317.3125 206.46875 315.828125 202.972656 312.300781 L 201.371094 318.191406 C 200.671875 320.769531 202.207031 322.304688 204.785156 321.605469 L 227.640625 315.398438 L 230.867188 310.085938"/><path fill="#23100D" d="M 202.242188 314.988281 L 201.371094 318.191406 C 200.671875 320.769531 202.207031 322.304688 204.785156 321.605469 L 207.988281 320.734375 L 202.242188 314.988281"/><path fill="#FBC322" d="M 255.824219 247.089844 L 207.582031 295.335938 L 213.632812 294.296875 L 212.597656 300.351562 L 218.648438 299.3125 L 217.609375 305.367188 L 223.664062 304.328125 L 222.625 310.382812 L 228.679688 309.34375 L 227.640625 315.398438 L 275.886719 267.152344 L 255.824219 247.089844"/><path fill="#F9AD24" d="M 272.347656 270.691406 L 275.886719 267.152344 L 255.824219 247.089844 L 252.285156 250.628906 L 272.347656 270.691406"/><path fill="#F9AD24" d="M 237.140625 299.71875 C 231.242188 300.371094 225.300781 298.207031 221.222656 293.839844 C 219.195312 291.671875 217.613281 289.203125 216.378906 286.535156 L 207.582031 295.335938 L 213.632812 294.296875 L 212.597656 300.351562 L 218.648438 299.3125 L 217.609375 305.367188 L 223.664062 304.328125 L 222.625 310.382812 L 228.679688 309.34375 L 227.640625 315.398438 L 245.8125 297.226562 C 243.046875 298.488281 240.160156 299.382812 237.140625 299.71875"/><path fill="#DE5CB5" d="M 279.855469 263.179688 L 289.152344 253.882812 C 291.421875 251.617188 291.421875 247.941406 289.152344 245.671875 L 277.304688 233.824219 C 275.039062 231.554688 271.359375 231.554688 269.089844 233.824219 L 259.792969 243.121094 L 279.855469 263.179688"/><path fill="#DD4EAF" d="M 290.839844 249.484375 C 287.472656 252.722656 282.515625 253.921875 277.617188 251.851562 C 273.613281 250.15625 270.085938 247.132812 267.839844 243.398438 C 266.847656 241.75 265.765625 239.792969 265.148438 237.765625 L 259.792969 243.121094 L 279.855469 263.183594 L 289.152344 253.882812 C 290.363281 252.675781 290.921875 251.066406 290.839844 249.484375"/><path fill="#D1D0D0" d="M 261.929688 240.984375 L 254.550781 248.363281 L 274.613281 268.425781 L 281.992188 261.046875 L 261.929688 240.984375"/><path fill="#EE2275" d="M 259.664062 243.25 L 256.816406 246.097656 L 276.878906 266.160156 L 279.726562 263.3125 L 259.664062 243.25"/><path fill="#FDDC53" d="M 263.378906 261.722656 L 227.042969 298.058594 C 228.902344 298.921875 230.894531 299.484375 232.941406 299.714844 L 267.15625 265.5 L 263.378906 261.722656"/><path fill="#FDE4C1" d="M 223.664062 304.328125 L 220.175781 304.925781 L 223.664062 304.328125 L 222.699219 309.957031 L 223.664062 304.328125"/><path fill="#FCCE52" d="M 265.644531 259.457031 L 263.378906 261.722656 L 267.15625 265.5 L 269.421875 263.234375 L 265.644531 259.457031"/><path fill="#FCCE52" d="M 227.042969 298.058594 L 220.175781 304.925781 L 223.664062 304.328125 L 222.699219 309.953125 L 232.941406 299.714844 C 230.894531 299.484375 228.902344 298.921875 227.042969 298.058594"/><path fill="#E6E6E6" d="M 273.023438 252.078125 L 270.757812 254.34375 L 274.535156 258.121094 L 276.800781 255.855469 L 273.023438 252.078125 M 267.910156 257.191406 L 265.644531 259.457031 L 269.421875 263.234375 L 271.6875 260.96875 L 267.910156 257.191406"/><path fill="#F25297" d="M 270.757812 254.34375 L 267.910156 257.191406 L 271.6875 260.96875 L 274.535156 258.121094 L 270.757812 254.34375"/><path fill="#FDDC53" d="M 268.96875 267.3125 L 236.5 299.777344 C 236.714844 299.761719 236.925781 299.742188 237.140625 299.71875 C 238.519531 299.566406 239.867188 299.296875 241.1875 298.929688 L 270.886719 269.230469 L 268.96875 267.3125"/><path fill="#FDDBAA" d="M 228.679688 309.34375 L 228.246094 311.871094 L 228.679688 309.34375"/><path fill="#FCCE52" d="M 271.234375 265.046875 L 268.96875 267.3125 L 270.886719 269.230469 L 273.152344 266.964844 L 271.234375 265.046875"/><path fill="#FCCE52" d="M 241.1875 298.929688 C 239.867188 299.296875 238.519531 299.566406 237.140625 299.71875 C 236.925781 299.742188 236.714844 299.761719 236.5 299.777344 L 226.574219 309.703125 L 228.679688 309.34375 L 228.246094 311.871094 L 241.1875 298.929688"/><path fill="#E6E6E6" d="M 278.613281 257.667969 L 276.347656 259.933594 L 278.265625 261.851562 L 280.53125 259.585938 L 278.613281 257.667969 M 273.5 262.78125 L 271.234375 265.046875 L 273.152344 266.964844 L 275.417969 264.699219 L 273.5 262.78125"/><path fill="#F25297" d="M 276.347656 259.933594 L 273.5 262.78125 L 275.417969 264.699219 L 278.265625 261.851562 L 276.347656 259.933594"/></svg>